PathFileType	4	(X/Y/Z)	F:\MotionCapture\20160217\3\Generated_files\EMG_Fprce_test05-Dynamic.trc
DataRate	CameraRate	NumFrames	NumMarkers	Units	OrigDataRate	OrigDataStartFrame	OrigNumFrames
120.00	120.00	       9	39	mm	120.00	48	       188
Frame#	Time	Top.Head			Front.Head			Rear.Head			R.Shoulder			R.Offset			R.Elbow			R.Wrist			L.Shoulder			L.Elbow			L.Wrist			R.ASIS			L.ASIS			V.Sacral			R.Thigh			R.Knee			R.Shank			R.Ankle			R.Heel			R.Toe			L.Thigh			L.Knee			L.Shank			L.Ankle			L.Heel			L.Toe			R1			R2			R3			R4			R5			R6			R7			L1			L2			L3			L4			L5			L6			L7			V_Mid_ASIS			V_Pelvis_Origin			V_R.Hip_JC			V_L.Hip_JC			V_R.Knee_JC			V_L.Knee_JC			V_R.Ankle_JC			V_L.Ankle_JC			V_Mid_Hip			V_Mid_Shoulder			V_R.Hand			V_L.Hand			V_R.Toe_Offset_Static			V_L.Toe_Offset_Static			V_R.Toe_Offset			V_L.Toe_Offset			
		X1	Y1	Z1	X2	Y2	Z2	X3	Y3	Z3	X4	Y4	Z4	X5	Y5	Z5	X6	Y6	Z6	X7	Y7	Z7	X8	Y8	Z8	X9	Y9	Z9	X10	Y10	Z10	X11	Y11	Z11	X12	Y12	Z12	X13	Y13	Z13	X14	Y14	Z14	X15	Y15	Z15	X16	Y16	Z16	X17	Y17	Z17	X18	Y18	Z18	X19	Y19	Z19	X20	Y20	Z20	X21	Y21	Z21	X22	Y22	Z22	X23	Y23	Z23	X24	Y24	Z24	X25	Y25	Z25	X26	Y26	Z26	X27	Y27	Z27	X28	Y28	Z28	X29	Y29	Z29	X30	Y30	Z30	X31	Y31	Z31	X32	Y32	Z32	X33	Y33	Z33	X34	Y34	Z34	X35	Y35	Z35	X36	Y36	Z36	X37	Y37	Z37	X38	Y38	Z38	X39	Y39	Z39	

48	0.392	2019.83325	75.92374	1651.01685	1924.17871	19.00751	1568.04419	2116.09570	126.48131	1582.55591	2109.92041	282.23166	1357.54419	2226.34521	0.30923	1219.74951	2282.47754	372.45230	1093.24695	2328.65674	405.80984	837.03107	2043.43909	-114.86909	1348.46375	1964.07349	-183.61873	1024.73499	1753.88916	-87.29897	911.96356	2044.64758	216.42436	882.66180	2058.91553	-71.61761	866.92969	2275.85693	94.99988	882.64313	1861.63757	151.11751	606.30682	1861.24341	188.13698	477.01703	1880.33008	107.62476	241.24942	1929.63525	184.13274	78.74856	2008.36389	136.37361	54.44935	1793.55676	139.15161	45.20206	2056.08057	-61.09319	535.46991	2192.25684	-118.90235	399.15826	2286.73730	-49.10229	285.40796	2544.34424	-101.59304	171.70181	2598.92871	-46.05109	206.35069	2464.64868	-84.71107	57.31483				1796.81201	99.91793	49.67845	1898.38647	82.73447	58.90443	1969.92261	98.18430	50.87623	1968.43384	170.46034	54.69893	1890.91345	185.45958	43.68345	1821.72046	193.98444	37.52393	2427.91455	-56.77741	40.08905	2449.69409	-48.54745	61.96801	2503.61450	-18.05722	132.41695	2566.99731	-16.16047	181.40582	2585.84717	-85.68310	182.37421	2544.45654	-110.05879	110.75037	2499.44897	-113.90775	69.32673																																																	2240.55713	-173.51381	253.39105	2562.32617	-91.63573	187.65990	1744.59351	104.22807	36.27654	2370.43066	-104.16993	-8.33217	
49	0.400	2012.27759	75.80275	1650.71912	1919.58679	14.61696	1567.33118	2107.05151	129.91190	1582.46436	2102.27368	283.67532	1357.31042	2221.54248	2.98608	1220.11487	2274.28174	373.97147	1092.97717	2319.95361	407.26724	836.61060	2038.90356	-114.44823	1348.26904	1960.55310	-181.01860	1023.91779	1750.98608	-84.70156	910.09772	2039.93774	216.24014	881.96600	2055.02295	-70.96113	867.72968	2271.60815	96.11443	883.28149	1858.14880	150.66005	606.88519	1856.90186	186.90585	476.22897	1879.20154	106.79262	240.90483	1928.98633	183.37895	79.39900	2007.93250	135.35585	54.83414	1793.51892	138.52696	45.22084	2050.32715	-62.05144	536.10120	2186.20898	-119.59092	399.71640	2280.03442	-50.40145	285.98758	2538.36401	-101.68488	173.14644	2592.42358	-46.44382	209.58763	2463.93457	-83.60933	56.41195				1796.62354	99.12048	49.38940	1898.84790	82.13354	59.46648	1969.60840	96.76520	51.35270	1969.21692	171.69923	53.87266	1890.60291	184.80054	43.97229	1822.07813	193.29700	38.02305	2427.60303	-56.22706	39.88657	2448.98438	-47.80839	60.85756	2498.86084	-18.39826	133.04720	2560.49146	-16.80868	183.37180	2580.17554	-86.24540	184.93413	2540.82446	-110.45203	111.64628	2497.34448	-113.44946	68.99203																																																	2648.87866	-149.36003	20.33463	2234.36572	-174.59258	254.46182	2557.77588	-91.05246	190.30359	1744.46045	104.16360	36.29388	
50	0.408	2005.58923	75.85558	1650.50110	1915.30554	10.89975	1567.02466	2098.00220	133.05606	1582.40625	2094.11426	284.67310	1357.60327	2216.93188	5.47870	1220.79761	2266.14771	376.31985	1092.91162	2311.79321	408.66476	836.20111	2034.47229	-113.70437	1348.15198	1957.31677	-179.51787	1023.07452	1748.36072	-81.72802	907.99664	2035.09119	216.81201	881.52954	2051.20557	-70.43621	868.14868	2267.62817	96.89217	884.40515	1854.43970	149.95230	607.01288	1853.56885	187.08841	474.82867	1876.65222	106.07417	240.98538	1929.05603	181.69724	79.73208	2007.65686	133.62401	55.73015	1793.36060	138.07993	45.33361	2045.83960	-63.11578	536.91901	2180.29907	-119.91112	400.50827	2274.70410	-51.04737	286.58328	2533.44653	-102.67616	174.77393	2585.73608	-46.41268	212.88493	2463.34009	-83.00962	55.86124				1796.41003	98.72361	49.29528	1897.17896	81.50620	59.72093	1969.75122	96.10732	52.11456	1971.79688	172.59584	55.60597	1890.22217	183.74744	44.28442	1822.34607	192.14761	38.16565	2427.85132	-55.49634	39.71227	2448.37378	-46.76860	59.66669	2494.42432	-18.87662	133.18379	2554.17407	-17.57566	185.53268	2574.52832	-86.32388	187.10152	2537.80957	-110.72623	112.74870	2496.22974	-112.07402	67.49024																																																	1744.35608	104.14922	36.30138	
51	0.417	1998.51819	75.11908	1650.38391	1910.89612	7.01870	1566.94238	2089.22559	136.11816	1582.39600	2086.88379	285.98679	1357.73608	2212.36060	7.77998	1221.67786	2258.35791	377.95093	1092.78369	2303.06299	409.66400	835.95148	2030.92053	-112.91404	1348.37415	1953.99121	-177.10255	1022.46008	1746.67444	-79.63174	906.31128	2032.15649	217.50262	881.65363	2047.76062	-69.27232	868.72980	2264.35547	96.88918	885.45892	1851.02881	149.94960	606.80646	1851.36609	186.79584	473.95508	1875.89880	105.94888	241.15707	1929.03442	180.81894	80.21796	2007.57129	132.62178	56.32319	1793.33643	137.82585	45.44510	2042.42981	-63.73281	537.43835	2175.33594	-120.85303	401.28412	2269.21582	-51.51196	287.18921	2529.15479	-103.37389	176.23683	2579.52344	-46.95555	215.52016	2462.88989	-82.02422	55.11245				1796.39148	98.46815	49.17669	1896.11230	80.93071	59.09927	1969.49976	95.05804	53.27588	1971.46790	171.50040	56.36238	1890.28259	183.04205	44.50810	1822.48975	191.20119	38.13152	2428.17603	-54.59142	39.67184	2448.56665	-46.19304	58.59969	2490.79346	-19.41685	133.37704	2549.15356	-17.48729	187.95412	2569.58032	-86.28853	189.44087	2535.04175	-111.01543	113.74131	2494.76172	-111.81080	66.87280																																																	1835.45215	59.14109	83.45493	1744.26477	104.11736	36.27721	
52	0.425	1991.58740	75.18461	1650.33472	1906.88525	3.52704	1566.88574	2080.57544	139.02602	1582.50696	2079.03662	286.55115	1358.18530	2208.07471	10.18563	1222.90808	2250.58936	380.32504	1092.96008	2295.59253	411.41125	836.10693	2026.75500	-112.11850	1348.78967	1951.97095	-176.13319	1022.19598	1744.26880	-77.24034	904.69006	2029.06982	218.55284	882.28320	2044.86450	-68.58144	869.60968	2261.12451	96.66477	886.20300	1848.28650	150.14523	605.98077	1848.87195	186.55591	473.85080	1874.44055	105.72887	241.51608	1928.98743	180.65669	80.78826	2007.76257	131.67134	57.47467	1793.30444	137.67734	45.54594	2037.63257	-64.30840	538.77972	2170.94019	-120.96910	401.68933	2264.46777	-52.26554	288.06693	2525.08325	-103.56812	177.39067	2574.03271	-46.77085	217.81508	2462.82593	-80.84625	54.58826				1796.31921	98.35458	49.11477	1895.84521	80.43471	59.41933	1969.01575	94.45458	53.69209	1971.20471	170.74268	57.08596	1890.57861	182.43570	45.15052	1822.43384	190.76781	38.31663	2428.59741	-53.81582	39.66923	2448.07739	-45.62749	57.34602	2487.47314	-19.59550	133.49907	2544.09106	-17.80948	190.38515	2565.01489	-86.57481	191.31364	2532.60059	-110.48423	114.46156	2494.04077	-111.92803	66.78657																																																	1835.57605	58.98194	83.31137	1807.33386	32.51919	-10.17498	1744.25708	104.11861	36.24031	
53	0.433	1985.13660	74.60936	1650.51782	1903.41638	0.24393	1567.04248	2072.19824	141.51479	1582.89539	2071.52686	288.32309	1359.04370	2203.92969	12.02102	1224.16345	2242.82642	382.44003	1093.58179	2286.88281	413.53015	836.70789	2022.80627	-111.59387	1349.25842	1949.59265	-174.16119	1022.26575	1743.50037	-75.19473	902.90381	2025.72156	219.04370	883.09344	2042.02710	-67.76783	870.34229	2258.33472	96.39557	887.63599	1844.89001	150.37851	605.00574	1847.20557	186.98387	474.06876	1873.81628	105.69768	241.66417	1928.64526	180.36093	81.12737	2007.34094	131.38202	58.20277	1793.24841	137.53879	45.61601	2034.48169	-64.48282	539.46881	2167.27173	-121.82668	402.65131	2260.43359	-53.34092	289.06097	2521.43848	-103.96854	178.70937	2569.11133	-46.92891	220.52660	2462.45947	-80.45527	54.50411				1796.20264	98.11367	49.07706	1895.52783	80.12934	59.86680	1968.59644	93.99288	54.32646	1971.16553	170.37813	57.48839	1890.43359	182.06299	45.66625	1822.61096	190.51341	38.46839	2428.78076	-53.57886	39.86677	2447.36475	-45.33817	56.83791	2484.49316	-19.44358	134.22475	2539.37427	-17.94373	192.02853	2560.57031	-85.78463	192.93358	2530.32080	-109.69814	115.65947	2493.59131	-111.64892	66.93189																																																	1836.54565	58.57953	83.45027	1807.02441	32.46397	-9.98303	2711.22339	16.76826	298.41409	1744.19653	104.11115	36.25333	
54	0.442	1978.88501	74.99435	1650.69543	1899.85913	-2.14980	1567.04028	2064.23682	144.66154	1583.20264	2064.48218	288.75272	1359.71997	2199.60352	13.84059	1225.71741	2235.51392	384.63232	1094.53906	2278.71338	415.59262	837.14026	2019.45117	-110.72808	1349.99072	1948.65979	-173.27266	1022.34674	1743.37878	-73.54115	901.83813	2023.16724	219.64917	883.79883	2039.40881	-67.15405	871.19165	2255.84839	95.70307	888.79346	1843.14087	150.85150	605.21301	1845.63867	187.53879	474.44003	1871.92139	105.78507	242.07866	1928.27771	180.09978	81.64967	2007.42261	131.08516	59.20676	1793.15881	137.42992	45.66815	2032.69067	-64.37885	540.32764	2164.05811	-122.20171	404.11542	2256.98755	-53.64851	289.88348	2518.18188	-103.77014	179.80444	2565.03638	-47.04555	222.85406	2462.06104	-80.21201	54.77808				1796.04626	97.88017	49.06137	1895.30859	79.75407	60.49902	1968.65442	93.35281	55.58901	1970.91956	170.22733	58.31883	1890.29895	181.93263	45.97639	1822.80237	190.19968	38.62933	2428.49756	-53.47131	39.86742	2446.10571	-44.89333	56.72545	2481.40308	-19.38994	135.20995	2535.34888	-18.81145	193.95966	2557.10352	-85.85988	195.02090	2528.62524	-109.50234	116.63394	2492.79346	-111.07468	67.13054																																																	1834.91699	57.65901	84.30299	1806.68262	32.53210	-10.07699	1744.16724	104.09258	36.27270	
55	0.450	1972.86328	75.12354	1651.19519	1896.05774	-4.80014	1567.65637	2056.39868	146.75940	1583.86035	2057.00220	289.17096	1360.22375	2195.74316	15.56537	1227.43115	2228.25806	387.18011	1095.82727	2270.99463	416.74066	837.63794	2015.97168	-110.01408	1350.92517	1947.05481	-172.10010	1022.31799	1743.28149	-72.28808	900.52393	2020.78406	220.44492	885.08618	2036.64038	-66.66500	872.12177	2253.61133	95.39534	890.22015	1841.61255	151.31779	605.91376	1844.42139	187.79375	474.67035	1870.93469	106.10851	242.59854	1928.18079	180.21147	82.31369	2007.18018	131.01260	60.00746	1793.11780	137.38736	45.73120	2028.54907	-64.47977	542.21753	2161.49316	-122.59943	405.33386	2253.87915	-54.24493	291.18240	2515.87378	-104.32104	181.40727	2561.20020	-47.53378	224.75156	2461.62549	-80.34578	54.90828				1795.93481	97.86073	49.03794	1895.81628	79.23544	60.89046	1968.43921	93.37673	56.20943	1970.70544	170.01871	59.05212	1890.23682	181.92310	46.21515	1822.82019	190.03192	38.76319	2428.34888	-53.43019	39.82637	2445.54468	-44.92415	56.81561	2479.14160	-20.05045	136.55695	2532.25854	-18.44144	196.45985	2554.04004	-85.74660	196.81172	2527.09155	-109.69255	118.46833	2492.36279	-110.81647	67.52415																																																	2706.66943	17.35091	299.33350	1744.15173	104.03925	36.24571	
56	0.458	1966.75513	74.82924	1651.69934	1892.73120	-7.22464	1567.90625	2049.11694	148.90405	1584.66711	2050.65503	290.10620	1361.36218	2192.30591	16.88873	1229.38782	2221.43701	389.49280	1097.18030	2263.61182	418.67136	838.89484	2012.06799	-109.26411	1352.07605	1946.32971	-171.38869	1022.65204	1742.84778	-70.95343	898.90759	2018.62146	220.86526	886.28912	2034.13525	-65.85751	873.22968	2251.32666	95.26454	891.34265	1840.17798	151.51382	606.38788	1843.79712	187.83398	475.02762	1870.60583	106.15250	242.84979	1927.99988	180.28908	82.71233	2006.95959	131.44986	60.73033	1793.05566	137.39090	45.73922	2027.17017	-64.22307	543.66492	2160.02466	-123.08452	406.80667	2252.10767	-54.78925	292.06491	2513.61353	-104.55136	182.81186	2558.30444	-47.44725	227.08731	2460.87720	-80.60554	55.54852				1795.87317	97.94370	49.01748	1895.43701	79.71755	61.14378	1968.26392	93.50733	56.70459	1970.46362	170.28314	59.78349	1890.05847	182.02620	46.34953	1822.74402	190.03311	38.70290	2428.24316	-53.44479	39.82404	2444.86035	-45.31450	57.18161	2477.55420	-19.88151	137.96533	2529.07959	-18.34320	197.76541	2551.82568	-86.00166	198.76425	2526.22021	-109.27460	119.93595	2491.84399	-110.39027	68.31609																																																	2704.74585	17.42440	300.15176	1744.20081	104.00563	36.25839	
